HIERARCHY
ROOT pelvis
{
	OFFSET 0.000000 0.860057 -0.000000
	CHANNELS 6 Xposition Yposition Zposition Xrotation Yrotation Zrotation
	JOINT spine
	{
		OFFSET 0.000000 0.000000 0.000000
		CHANNELS 6 Xposition Yposition Zposition Xrotation Yrotation Zrotation
		JOINT spine.001
		{
			OFFSET 0.000000 0.260655 0.013660
			CHANNELS 3 Xrotation Yrotation Zrotation
			JOINT neck
			{
				OFFSET 0.000000 0.259067 -0.031809
				CHANNELS 6 Xposition Yposition Zposition Xrotation Yrotation Zrotation
				JOINT face
				{
					OFFSET 0.000000 0.215098 -0.003755
					CHANNELS 6 Xposition Yposition Zposition Xrotation Yrotation Zrotation
					End Site
					{
						OFFSET 0.000000 -0.008359 0.032339
					}
				}
			}
			JOINT shoulder.L
			{
				OFFSET 0.000000 0.259067 -0.031809
				CHANNELS 6 Xposition Yposition Zposition Yrotation Xrotation Zrotation
				JOINT upper_arm.L
				{
					OFFSET 0.165174 0.000000 0.000000
					CHANNELS 6 Xposition Yposition Zposition Xrotation Yrotation Zrotation
					JOINT forearm.L
					{
						OFFSET 0.286643 0.001034 -0.000125
						CHANNELS 6 Xposition Yposition Zposition Xrotation Yrotation Zrotation
						End Site
						{
							OFFSET 0.240020 -0.001423 0.004075
						}
					}
				}
			}
			JOINT shoulder.R
			{
				OFFSET 0.000000 0.259067 -0.031809
				CHANNELS 6 Xposition Yposition Zposition Yrotation Xrotation Zrotation
				JOINT upper_arm.R
				{
					OFFSET -0.165174 0.000000 0.000000
					CHANNELS 6 Xposition Yposition Zposition Xrotation Yrotation Zrotation
					JOINT forearm.R
					{
						OFFSET -0.289110 0.001034 -0.000125
						CHANNELS 6 Xposition Yposition Zposition Xrotation Yrotation Zrotation
						End Site
						{
							OFFSET -0.238651 -0.001423 0.004051
						}
					}
				}
			}
		}
	}
	JOINT pelvis.L
	{
		OFFSET 0.000000 0.000000 0.000000
		CHANNELS 6 Xposition Yposition Zposition Yrotation Xrotation Zrotation
		End Site
		{
			OFFSET 0.104399 0.000000 0.000000
		}
	}
	JOINT pelvis.R
	{
		OFFSET 0.000000 0.000000 0.000000
		CHANNELS 6 Xposition Yposition Zposition Yrotation Xrotation Zrotation
		End Site
		{
			OFFSET -0.104399 0.000000 0.000000
		}
	}
	JOINT thigh.L
	{
		OFFSET 0.104399 0.000000 0.000000
		CHANNELS 6 Xposition Yposition Zposition Xrotation Yrotation Zrotation
		JOINT shin.L
		{
			OFFSET 0.021308 -0.406588 0.000000
			CHANNELS 6 Xposition Yposition Zposition Xrotation Yrotation Zrotation
			JOINT foot.L
			{
				OFFSET 0.019716 -0.376210 0.000000
				CHANNELS 6 Xposition Yposition Zposition Xrotation Yrotation Zrotation
				End Site
				{
					OFFSET 0.016962 -0.072623 0.172945
				}
			}
		}
	}
	JOINT thigh.R
	{
		OFFSET -0.104399 0.000000 0.000000
		CHANNELS 6 Xposition Yposition Zposition Xrotation Yrotation Zrotation
		JOINT shin.R
		{
			OFFSET -0.021045 -0.401565 0.000000
			CHANNELS 6 Xposition Yposition Zposition Xrotation Yrotation Zrotation
			JOINT foot.R
			{
				OFFSET -0.020371 -0.388707 0.000000
				CHANNELS 6 Xposition Yposition Zposition Xrotation Yrotation Zrotation
				End Site
				{
					OFFSET -0.016433 -0.070357 0.167551
				}
			}
		}
	}
}
MOTION
Frames: 6
Frame Time: 0.041667
-0.010250 -0.009824 0.024824 -0.000000 -1.923825 -0.000000 -0.000000 -0.000000 0.000000 -5.854069 0.121537 -1.170646 10.037783 5.932855 -0.731117 -0.000000 0.259067 -0.031809 12.547799 -2.958434 0.178225 -0.000000 0.215098 -0.003755 -1.890073 -0.000000 0.000000 -0.000000 0.259067 -0.031809 0.206232 -0.003022 1.680426 0.165174 -0.000000 0.000000 -2.041191 -2.245754 -83.697876 0.286643 0.001034 -0.000125 -1.135633 -15.114787 -8.992069 -0.000000 0.259067 -0.031809 0.199388 -0.002824 1.624605 -0.165175 0.000000 0.000000 -6.424733 8.019945 77.432202 -0.289110 0.001034 -0.000125 -0.306840 6.794625 6.266137 -0.000000 0.000000 -0.000000 0.000039 0.000000 -1.584480 -0.000000 0.000000 -0.000000 0.000000 0.000000 -1.584481 0.104359 -0.002887 -0.000000 7.713870 0.063844 -5.053015 0.021308 -0.406588 0.000000 -1.850765 -0.255244 9.704077 0.019716 -0.376210 0.000000 -3.825081 -7.901708 -3.279639 -0.104359 0.002887 0.000000 10.591112 -0.185825 3.995369 -0.021045 -0.401565 0.000000 -9.909094 0.714343 -2.226228 -0.020371 -0.388707 0.000000 1.456654 2.359602 1.100182 
-0.009979 -0.011311 0.024061 -0.000000 -1.857912 -0.000000 -0.000000 -0.000000 0.000000 -5.871406 0.114599 -1.102203 10.049338 6.766318 -0.834720 -0.000000 0.259067 -0.031809 12.621256 -2.825543 0.346761 0.000000 0.215098 -0.003755 -1.747619 0.000003 -0.000000 -0.000000 0.259067 -0.031809 0.224108 -0.003567 1.826228 0.165174 -0.000000 -0.000000 -2.537560 -2.794323 -83.890166 0.286643 0.001034 -0.000125 -1.068298 -14.732293 -8.689425 -0.000000 0.259067 -0.031809 0.217296 -0.003357 1.770447 -0.165175 0.000000 0.000000 -6.031152 7.555327 77.216996 -0.289110 0.001034 -0.000125 -0.320584 7.012920 6.275600 0.000000 -0.000000 0.000000 -0.000086 -0.000002 -1.844461 -0.000000 0.000000 0.000000 0.000000 0.000000 -1.844527 0.104345 -0.003360 -0.000000 7.342464 0.066842 -4.958150 0.021308 -0.406588 0.000000 -1.269046 -0.174843 9.689724 0.019716 -0.376210 0.000000 -3.926449 -7.736085 -3.200254 -0.104345 0.003360 0.000000 10.661616 -0.200685 3.849475 -0.021045 -0.401565 0.000000 -10.042763 0.714864 -2.122487 -0.020371 -0.388707 0.000000 0.980039 3.124393 1.380392 
-0.010303 -0.012595 0.023067 -0.000000 -1.633753 -0.000000 -0.000000 -0.000000 0.000000 -5.799968 0.112832 -1.091867 10.059029 7.401740 -0.913961 -0.000000 0.259067 -0.031809 12.545315 -2.464307 0.582480 0.000000 0.215098 -0.003755 -1.344568 -0.000001 -0.000001 -0.000000 0.259067 -0.031809 0.242464 -0.004179 1.975504 0.165174 0.000000 -0.000000 -2.922003 -3.216225 -84.046051 0.286643 0.001034 -0.000125 -1.032498 -14.625551 -8.450156 0.000000 0.259067 -0.031809 0.235597 -0.003946 1.919677 -0.165175 -0.000000 -0.000000 -5.701890 7.174088 76.956807 -0.289110 0.001034 -0.000125 -0.339820 7.184568 6.465439 0.000000 -0.000000 0.000000 -0.000010 -0.000000 -1.939346 -0.000000 0.000000 0.000000 0.000000 0.000000 -1.939346 0.104339 -0.003533 0.000000 6.772626 0.069767 -4.820927 0.021308 -0.406588 0.000000 -0.388174 -0.053401 9.669999 0.019716 -0.376210 0.000000 -4.139168 -7.848470 -3.249100 -0.104339 0.003533 -0.000000 10.689716 -0.205254 3.806380 -0.021045 -0.401565 0.000000 -10.088077 0.716055 -2.099316 -0.020371 -0.388707 0.000000 0.593523 3.538289 1.527368 
-0.011089 -0.013765 0.021871 -0.000000 -1.233705 -0.000000 -0.000000 -0.000000 0.000000 -5.636316 0.112619 -1.105200 10.066617 7.861077 -0.971379 -0.000000 0.259067 -0.031809 12.355696 -1.969538 0.814585 0.000000 0.215098 -0.003755 -0.865373 0.000002 -0.000000 -0.000000 0.259067 -0.031809 0.258497 -0.004750 2.106403 0.165174 -0.000000 0.000000 -3.197870 -3.519271 -84.131845 0.286643 0.001034 -0.000125 -1.031525 -14.739350 -8.359737 -0.000000 0.259067 -0.031809 0.251642 -0.004505 2.050577 -0.165175 -0.000000 0.000000 -5.476240 6.925447 76.660056 -0.289110 0.001034 -0.000125 -0.360935 7.228078 6.861328 0.000000 -0.000000 0.000000 -0.000068 -0.000001 -1.855066 -0.000000 0.000000 0.000000 0.000000 0.000000 -1.855033 0.104344 -0.003380 0.000000 5.948219 0.070722 -4.638762 0.021308 -0.406588 0.000000 0.906436 0.124018 9.579748 0.019716 -0.376210 0.000000 -4.509565 -8.186713 -3.403152 -0.104344 0.003379 -0.000000 10.711376 -0.201355 3.852405 -0.021045 -0.401565 0.000000 -10.114878 0.720401 -2.126696 -0.020371 -0.388707 0.000000 0.363748 3.557833 1.521381 
-0.011743 -0.015027 0.020691 -0.000000 -0.755314 -0.000000 -0.000000 -0.000000 0.000000 -5.451048 0.105650 -1.053723 10.074859 8.321266 -1.029016 0.000000 0.259067 -0.031809 12.248356 -1.586371 0.921129 -0.000000 0.215098 -0.003755 -0.668119 0.000002 0.000000 0.000000 0.259067 -0.031809 0.269079 -0.005145 2.192296 0.165174 -0.000000 0.000000 -3.447392 -3.796105 -84.155266 0.286643 0.001034 -0.000125 -1.046334 -14.813833 -8.436970 0.000000 0.259067 -0.031809 0.262234 -0.004887 2.136469 -0.165175 -0.000000 0.000000 -5.372657 6.825403 76.401649 -0.289110 0.001034 -0.000125 -0.368499 7.035033 7.316424 -0.000000 0.000000 -0.000000 0.000039 0.000000 -1.712110 -0.000000 0.000000 -0.000000 0.000000 0.000000 -1.712143 0.104352 -0.003119 -0.000000 4.984115 0.067116 -4.457871 0.021308 -0.406588 0.000000 2.457700 0.331438 9.357950 0.019716 -0.376210 0.000000 -4.937661 -8.426873 -3.512294 -0.104352 0.003119 -0.000000 10.792634 -0.198879 3.894849 -0.021045 -0.401565 0.000000 -10.243725 0.727352 -2.101432 -0.020371 -0.388707 0.000000 0.293003 3.353299 1.431185 
-0.011989 -0.016344 0.019678 -0.000000 -0.302073 -0.000000 -0.000000 -0.000000 0.000000 -5.307185 0.089993 -0.909043 10.085018 8.863421 -1.097108 -0.000000 0.259067 -0.031809 12.366373 -1.360819 0.900630 0.000000 0.215098 -0.003755 -0.805424 -0.000001 -0.000001 -0.000000 0.259067 -0.031809 0.274327 -0.005350 2.235400 0.165174 0.000000 0.000000 -3.700616 -4.079365 -84.144802 0.286643 0.001034 -0.000125 -1.053781 -14.722644 -8.568389 0.000000 0.259067 -0.031809 0.267469 -0.005086 2.179575 -0.165175 0.000000 -0.000000 -5.393307 6.869341 76.260449 -0.289110 0.001034 -0.000125 -0.349083 6.569221 7.643918 -0.000000 0.000000 0.000000 0.000056 0.000001 -1.622310 -0.000000 0.000000 0.000000 0.000000 0.000000 -1.622310 0.104357 -0.002956 -0.000000 4.069470 0.058916 -4.341729 0.021308 -0.406588 0.000000 3.935713 0.519725 9.038991 0.019716 -0.376210 0.000000 -5.262343 -8.346887 -3.469748 -0.104357 0.002956 -0.000000 10.931134 -0.203022 3.878376 -0.021045 -0.401565 0.000000 -10.453581 0.729896 -1.966124 -0.020371 -0.388707 0.000000 0.289109 3.085234 1.318464 
